<?xml version="1.0" encoding="UTF-8"?>
<svg width="20px" height="18px" viewBox="0 0 20 18" version="1.1" xmlns="http://www.w3.org/2000/svg" xmlns:xlink="http://www.w3.org/1999/xlink">
    <!-- Generator: Sketch 54.1 (76490) - https://sketchapp.com -->
    <title>logo</title>
    <desc>Created with Sketch.</desc>
    <g id="页面1" stroke="none" stroke-width="1" fill="none" fill-rule="evenodd">
        <g id="外汇行情" transform="translate(-15.000000, -16.000000)">
            <g id="07重要選單/00頂部選單/00控件/00Logo-純圖標">
                <g id="logo" transform="translate(15.500000, 16.000000)">
                    <path d="M18.7479589,1.68049857 C18.7479589,1.57783023 18.6728198,1.5368596 18.5802865,1.58885458 L9.62977246,6.66711748 C9.53787966,6.71908023 9.38635429,6.80356805 9.29378729,6.85472493 L0.0892701837,11.9270244 C-0.00333052419,11.9786003 -0.00333052419,12.0613797 0.0899443789,12.1116662 L9.2931131,17.0792342 C9.38635429,17.1299076 9.53787966,17.1286504 9.63068262,17.0766877 L18.5796123,12.0609284 C18.6721793,12.0085466 18.7479589,11.8827013 18.7479589,11.7800652 L18.7479589,1.68049857 Z" id="Fill-45" fill="#35BDCE"></path>
                    <path d="M9.39165683,4.99493875 C9.48510029,5.04522529 9.48510029,5.12800466 9.39253329,5.1791293 L0.187780212,10.25188 C0.095246924,10.3034559 0.0194673858,10.2607446 0.0194673858,10.1589466 L0.0194673858,0.121529011 C0.0194673858,0.0193119628 0.095246924,-0.0233993553 0.188420698,0.0269516476 L9.39165683,4.99493875 Z" id="Fill-47" fill="#EFEEEE"></path>
                    <path d="M9.25489971,6.8766866 L0.0892499579,11.927034 C-0.00331704028,11.9785777 -0.00331704028,12.0613893 0.089924153,12.1116436 L9.29312658,17.0792439 C9.29312658,17.0792439 9.32272375,17.0986494 9.39031182,17.1108986 C9.42125737,17.1164431 9.4621136,17.1164431 9.4621136,17.1164431 L9.4621136,6.76173675 L9.25489971,6.8766866 Z" id="Fill-50" fill="#E185B7"></path>
                </g>
            </g>
        </g>
    </g>
</svg>